REM MD5 4ef3c44c47a62bd7f5e65439dd0145a8
FILE "Densha de Go! 2 (Japan) (Demo 1).bin" BINARY
  TRACK 01 MODE2/2352
    INDEX 01 00:00:00
  TRACK 02 AUDIO
    INDEX 00 11:34:51
    INDEX 01 11:36:51
  TRACK 03 AUDIO
    INDEX 00 13:53:33
    INDEX 01 13:55:33
REM LEADOUT 16:19:30
